<mxfile host="app.diagrams.net" modified="2020-11-17T04:57:28.774Z" agent="5.0 (Windows NT 10.0; Win64; x64) AppleWebKit/537.36 (KHTML, like Gecko) Chrome/86.0.4240.193 Safari/537.36" etag="Dh34cNMiV1y8r2pO1ADs" version="13.9.7" type="github">
  <diagram id="y-LwJN4ATvXRKR-TWrhy" name="Page-1">
    <mxGraphModel dx="1422" dy="762" grid="1" gridSize="10" guides="1" tooltips="1" connect="1" arrows="1" fold="1" page="1" pageScale="1" pageWidth="850" pageHeight="1100" math="0" shadow="0">
      <root>
        <mxCell id="0" />
        <mxCell id="1" parent="0" />
        <mxCell id="6A07_-raBWXh2a21BvuS-1" value="" style="rounded=0;whiteSpace=wrap;html=1;" vertex="1" parent="1">
          <mxGeometry x="25" y="40" width="800" height="410" as="geometry" />
        </mxCell>
        <mxCell id="6A07_-raBWXh2a21BvuS-2" value="Day" style="text;html=1;strokeColor=none;fillColor=none;align=center;verticalAlign=middle;whiteSpace=wrap;rounded=0;" vertex="1" parent="1">
          <mxGeometry x="80" y="40" width="40" height="20" as="geometry" />
        </mxCell>
        <mxCell id="6A07_-raBWXh2a21BvuS-3" value="Month" style="text;html=1;strokeColor=none;fillColor=none;align=center;verticalAlign=middle;whiteSpace=wrap;rounded=0;" vertex="1" parent="1">
          <mxGeometry x="120" y="40" width="40" height="20" as="geometry" />
        </mxCell>
        <mxCell id="6A07_-raBWXh2a21BvuS-4" value="Year" style="text;html=1;strokeColor=none;fillColor=none;align=center;verticalAlign=middle;whiteSpace=wrap;rounded=0;" vertex="1" parent="1">
          <mxGeometry x="160" y="40" width="40" height="20" as="geometry" />
        </mxCell>
        <mxCell id="6A07_-raBWXh2a21BvuS-5" value="" style="whiteSpace=wrap;html=1;aspect=fixed;" vertex="1" parent="1">
          <mxGeometry x="160" y="110" width="80" height="80" as="geometry" />
        </mxCell>
        <mxCell id="6A07_-raBWXh2a21BvuS-6" value="" style="whiteSpace=wrap;html=1;aspect=fixed;" vertex="1" parent="1">
          <mxGeometry x="240" y="110" width="80" height="80" as="geometry" />
        </mxCell>
        <mxCell id="6A07_-raBWXh2a21BvuS-7" value="" style="whiteSpace=wrap;html=1;aspect=fixed;" vertex="1" parent="1">
          <mxGeometry x="320" y="110" width="80" height="80" as="geometry" />
        </mxCell>
        <mxCell id="6A07_-raBWXh2a21BvuS-8" value="" style="whiteSpace=wrap;html=1;aspect=fixed;" vertex="1" parent="1">
          <mxGeometry x="400" y="110" width="80" height="80" as="geometry" />
        </mxCell>
        <mxCell id="6A07_-raBWXh2a21BvuS-9" value="" style="whiteSpace=wrap;html=1;aspect=fixed;" vertex="1" parent="1">
          <mxGeometry x="480" y="110" width="80" height="80" as="geometry" />
        </mxCell>
        <mxCell id="6A07_-raBWXh2a21BvuS-10" value="" style="whiteSpace=wrap;html=1;aspect=fixed;" vertex="1" parent="1">
          <mxGeometry x="560" y="110" width="80" height="80" as="geometry" />
        </mxCell>
        <mxCell id="6A07_-raBWXh2a21BvuS-11" value="" style="whiteSpace=wrap;html=1;aspect=fixed;" vertex="1" parent="1">
          <mxGeometry x="160" y="190" width="80" height="80" as="geometry" />
        </mxCell>
        <mxCell id="6A07_-raBWXh2a21BvuS-12" value="" style="whiteSpace=wrap;html=1;aspect=fixed;" vertex="1" parent="1">
          <mxGeometry x="240" y="190" width="80" height="80" as="geometry" />
        </mxCell>
        <mxCell id="6A07_-raBWXh2a21BvuS-14" value="" style="whiteSpace=wrap;html=1;aspect=fixed;" vertex="1" parent="1">
          <mxGeometry x="320" y="190" width="80" height="80" as="geometry" />
        </mxCell>
        <mxCell id="6A07_-raBWXh2a21BvuS-15" value="" style="whiteSpace=wrap;html=1;aspect=fixed;" vertex="1" parent="1">
          <mxGeometry x="400" y="190" width="80" height="80" as="geometry" />
        </mxCell>
        <mxCell id="6A07_-raBWXh2a21BvuS-16" value="" style="whiteSpace=wrap;html=1;aspect=fixed;" vertex="1" parent="1">
          <mxGeometry x="480" y="190" width="80" height="80" as="geometry" />
        </mxCell>
        <mxCell id="6A07_-raBWXh2a21BvuS-17" value="" style="whiteSpace=wrap;html=1;aspect=fixed;" vertex="1" parent="1">
          <mxGeometry x="560" y="190" width="80" height="80" as="geometry" />
        </mxCell>
        <mxCell id="6A07_-raBWXh2a21BvuS-18" value="Month" style="text;html=1;strokeColor=none;fillColor=none;align=center;verticalAlign=middle;whiteSpace=wrap;rounded=0;" vertex="1" parent="1">
          <mxGeometry x="405" y="80" width="40" height="20" as="geometry" />
        </mxCell>
        <mxCell id="6A07_-raBWXh2a21BvuS-19" value="" style="whiteSpace=wrap;html=1;aspect=fixed;" vertex="1" parent="1">
          <mxGeometry x="640" y="110" width="80" height="80" as="geometry" />
        </mxCell>
        <mxCell id="6A07_-raBWXh2a21BvuS-20" value="" style="whiteSpace=wrap;html=1;aspect=fixed;" vertex="1" parent="1">
          <mxGeometry x="160" y="270" width="80" height="80" as="geometry" />
        </mxCell>
        <mxCell id="6A07_-raBWXh2a21BvuS-21" value="" style="whiteSpace=wrap;html=1;aspect=fixed;" vertex="1" parent="1">
          <mxGeometry x="240" y="270" width="80" height="80" as="geometry" />
        </mxCell>
        <mxCell id="6A07_-raBWXh2a21BvuS-22" value="" style="whiteSpace=wrap;html=1;aspect=fixed;" vertex="1" parent="1">
          <mxGeometry x="320" y="270" width="80" height="80" as="geometry" />
        </mxCell>
        <mxCell id="6A07_-raBWXh2a21BvuS-23" value="" style="whiteSpace=wrap;html=1;aspect=fixed;" vertex="1" parent="1">
          <mxGeometry x="400" y="270" width="80" height="80" as="geometry" />
        </mxCell>
        <mxCell id="6A07_-raBWXh2a21BvuS-24" value="" style="whiteSpace=wrap;html=1;aspect=fixed;" vertex="1" parent="1">
          <mxGeometry x="480" y="270" width="80" height="80" as="geometry" />
        </mxCell>
        <mxCell id="6A07_-raBWXh2a21BvuS-25" value="" style="whiteSpace=wrap;html=1;aspect=fixed;" vertex="1" parent="1">
          <mxGeometry x="560" y="270" width="80" height="80" as="geometry" />
        </mxCell>
        <mxCell id="6A07_-raBWXh2a21BvuS-26" value="" style="whiteSpace=wrap;html=1;aspect=fixed;" vertex="1" parent="1">
          <mxGeometry x="640" y="190" width="80" height="80" as="geometry" />
        </mxCell>
        <mxCell id="6A07_-raBWXh2a21BvuS-27" value="" style="whiteSpace=wrap;html=1;aspect=fixed;" vertex="1" parent="1">
          <mxGeometry x="640" y="270" width="80" height="80" as="geometry" />
        </mxCell>
        <mxCell id="6A07_-raBWXh2a21BvuS-29" value="Work due" style="text;html=1;strokeColor=none;fillColor=none;align=center;verticalAlign=middle;whiteSpace=wrap;rounded=0;" vertex="1" parent="1">
          <mxGeometry x="580" y="220" width="40" height="20" as="geometry" />
        </mxCell>
        <mxCell id="6A07_-raBWXh2a21BvuS-31" value="" style="rounded=1;whiteSpace=wrap;html=1;fillColor=#ffe6cc;strokeColor=#d79b00;" vertex="1" parent="1">
          <mxGeometry x="160" y="180" width="560" height="10" as="geometry" />
        </mxCell>
        <mxCell id="6A07_-raBWXh2a21BvuS-32" value="" style="rounded=1;whiteSpace=wrap;html=1;fillColor=#ffe6cc;strokeColor=#d79b00;" vertex="1" parent="1">
          <mxGeometry x="160" y="260" width="480" height="10" as="geometry" />
        </mxCell>
        <mxCell id="6A07_-raBWXh2a21BvuS-30" value="work&amp;nbsp; that is needed to be completed within a specific number of days" style="text;html=1;strokeColor=none;fillColor=none;align=center;verticalAlign=middle;whiteSpace=wrap;rounded=0;labelBackgroundColor=none;" vertex="1" parent="1">
          <mxGeometry x="250" y="175" width="380" height="20" as="geometry" />
        </mxCell>
        <mxCell id="6A07_-raBWXh2a21BvuS-33" value="work&amp;nbsp; that is needed to be complete within a specific number of days" style="text;html=1;strokeColor=none;fillColor=none;align=center;verticalAlign=middle;whiteSpace=wrap;rounded=0;labelBackgroundColor=none;" vertex="1" parent="1">
          <mxGeometry x="220" y="255" width="380" height="20" as="geometry" />
        </mxCell>
      </root>
    </mxGraphModel>
  </diagram>
</mxfile>
